<svg width="152" height="20" viewBox="0 0 152 20" fill="none" xmlns="http://www.w3.org/2000/svg">
<path d="M10.1347 7.33333C10.0905 6.78093 9.88336 6.35006 9.51326 6.04072C9.14867 5.73138 8.59351 5.5767 7.84777 5.5767C7.37271 5.5767 6.98327 5.63471 6.67945 5.75071C6.38115 5.86119 6.16019 6.0131 6.01657 6.20644C5.87295 6.39978 5.79837 6.62074 5.79285 6.86932C5.7818 7.0737 5.81771 7.25876 5.90057 7.42448C5.98895 7.58467 6.12705 7.73106 6.31486 7.86364C6.50268 7.99069 6.74297 8.10669 7.03575 8.21165C7.32852 8.3166 7.67653 8.41051 8.07978 8.49337L9.47183 8.79167C10.4109 8.99053 11.2146 9.25292 11.883 9.57883C12.5514 9.90475 13.0983 10.2887 13.5237 10.7306C13.949 11.167 14.2611 11.6586 14.46 12.2055C14.6644 12.7524 14.7693 13.349 14.7749 13.9953C14.7693 15.1111 14.4904 16.0557 13.938 16.8291C13.3856 17.6024 12.5956 18.1907 11.5682 18.594C10.5462 18.9972 9.31715 19.1989 7.88092 19.1989C6.40601 19.1989 5.11892 18.9807 4.01965 18.5443C2.9259 18.1079 2.0752 17.4367 1.46756 16.5308C0.865449 15.6193 0.561629 14.4538 0.556105 13.0341H4.93111C4.95873 13.5533 5.08854 13.9897 5.32055 14.3433C5.55255 14.6968 5.87847 14.9647 6.29829 15.147C6.72364 15.3293 7.22909 15.4205 7.81463 15.4205C8.30626 15.4205 8.7178 15.3597 9.04924 15.2382C9.38068 15.1166 9.63202 14.9482 9.80327 14.7327C9.97451 14.5173 10.0629 14.2715 10.0684 13.9953C10.0629 13.7356 9.97727 13.5092 9.81155 13.3158C9.65136 13.117 9.3862 12.9402 9.0161 12.7855C8.64599 12.6253 8.14607 12.4762 7.51633 12.3381L5.82599 11.9735C4.32347 11.6476 3.13857 11.1035 2.2713 10.3411C1.40956 9.57331 0.981453 8.52651 0.986977 7.20076C0.981453 6.12358 1.2687 5.18174 1.84872 4.37524C2.43426 3.56321 3.24353 2.93071 4.27651 2.47775C5.31502 2.02478 6.50544 1.79829 7.84777 1.79829C9.21772 1.79829 10.4026 2.02754 11.4025 2.48603C12.4023 2.94452 13.1729 3.59083 13.7143 4.42495C14.2611 5.25355 14.5373 6.22301 14.5428 7.33333H10.1347ZM24.1836 6.27273V9.58712H15.7982V6.27273H24.1836ZM17.4222 3.22348H21.9961V14.9067C21.9961 15.0835 22.0265 15.2326 22.0872 15.3542C22.148 15.4702 22.2419 15.5586 22.369 15.6193C22.496 15.6746 22.659 15.7022 22.8578 15.7022C22.9959 15.7022 23.1561 15.6856 23.3384 15.6525C23.5262 15.6193 23.6643 15.5917 23.7527 15.5696L24.4156 18.7846C24.2112 18.8453 23.9184 18.9199 23.5373 19.0083C23.1617 19.0967 22.7142 19.1547 22.195 19.1823C21.1454 19.2375 20.2643 19.1298 19.5517 18.8591C18.8391 18.5829 18.3033 18.1493 17.9442 17.5582C17.5852 16.9672 17.4112 16.227 17.4222 15.3376V3.22348ZM26.05 19V6.27273H30.6239V19H26.05ZM28.3369 4.94697C27.7183 4.94697 27.188 4.74258 26.746 4.33381C26.3041 3.92503 26.0832 3.4334 26.0832 2.8589C26.0832 2.28441 26.3041 1.79277 26.746 1.38399C27.188 0.97522 27.7183 0.770833 28.3369 0.770833C28.9612 0.770833 29.4915 0.97522 29.9279 1.38399C30.3698 1.79277 30.5907 2.28441 30.5907 2.8589C30.5907 3.4334 30.3698 3.92503 29.9279 4.33381C29.4915 4.74258 28.9612 4.94697 28.3369 4.94697ZM32.9543 19V6.27273H37.3956V8.69223H37.5282C37.7602 7.79735 38.1275 7.14276 38.6302 6.72846C39.1384 6.31416 39.7322 6.10701 40.4117 6.10701C40.6106 6.10701 40.8067 6.12358 41 6.15672C41.1989 6.18434 41.3894 6.22577 41.5717 6.28101V10.1837C41.3452 10.1064 41.0663 10.0484 40.7348 10.0097C40.4034 9.97104 40.1189 9.9517 39.8814 9.9517C39.4339 9.9517 39.0307 10.0539 38.6716 10.2583C38.3181 10.4571 38.0391 10.7389 37.8348 11.1035C37.6304 11.4625 37.5282 11.8851 37.5282 12.3712V19H32.9543ZM47.6454 11.8409V19H43.0715V6.27273H47.4134V8.69223H47.5459C47.8221 7.88573 48.3082 7.25324 49.0043 6.79474C49.7058 6.33625 50.5234 6.10701 51.4569 6.10701C52.3573 6.10701 53.139 6.31416 53.8018 6.72846C54.4702 7.13723 54.9867 7.70068 55.3513 8.4188C55.7214 9.13692 55.9037 9.95723 55.8982 10.8797V19H51.3243V11.8409C51.3299 11.2112 51.1697 10.7168 50.8437 10.3577C50.5234 9.99866 50.0759 9.81913 49.5014 9.81913C49.1258 9.81913 48.7971 9.90199 48.5154 10.0677C48.2392 10.2279 48.0265 10.4599 47.8774 10.7637C47.7282 11.062 47.6509 11.4211 47.6454 11.8409ZM61.7025 19.1989C60.8905 19.1989 60.1724 19.0663 59.5482 18.8011C58.9295 18.5305 58.4434 18.1217 58.0898 17.5748C57.7363 17.0279 57.5595 16.3319 57.5595 15.4867C57.5595 14.7907 57.6783 14.1969 57.9158 13.7053C58.1534 13.2081 58.4848 12.8021 58.9102 12.4872C59.3355 12.1723 59.8299 11.9321 60.3933 11.7663C60.9623 11.6006 61.5755 11.4929 62.2328 11.4432C62.9454 11.3879 63.5172 11.3217 63.948 11.2443C64.3844 11.1615 64.6993 11.0482 64.8926 10.9046C65.086 10.7554 65.1826 10.5593 65.1826 10.3163V10.2831C65.1826 9.9517 65.0556 9.6976 64.8015 9.52083C64.5474 9.34407 64.2215 9.25568 63.8237 9.25568C63.3874 9.25568 63.0311 9.35235 62.7549 9.54569C62.4842 9.73351 62.3212 10.0235 62.266 10.4157H58.0567C58.1119 9.64236 58.3578 8.92977 58.7942 8.27793C59.2361 7.62058 59.8796 7.0958 60.7248 6.7036C61.57 6.30587 62.625 6.10701 63.89 6.10701C64.8015 6.10701 65.619 6.21473 66.3427 6.43016C67.0663 6.64007 67.6823 6.93561 68.1905 7.31676C68.6987 7.69239 69.0853 8.13431 69.3505 8.64252C69.6212 9.1452 69.7565 9.69208 69.7565 10.2831V19H65.4809V17.2102H65.3815C65.1274 17.6853 64.8181 18.0692 64.4535 18.362C64.0944 18.6548 63.6829 18.8674 63.2189 19C62.7604 19.1326 62.2549 19.1989 61.7025 19.1989ZM63.194 16.3153C63.542 16.3153 63.8679 16.2435 64.1718 16.0999C64.4811 15.9563 64.7324 15.7491 64.9258 15.4785C65.1191 15.2078 65.2158 14.8791 65.2158 14.4924V13.4318C65.0943 13.4815 64.9644 13.5285 64.8264 13.5727C64.6938 13.6169 64.5502 13.6583 64.3955 13.697C64.2463 13.7356 64.0861 13.7715 63.9149 13.8047C63.7492 13.8378 63.5752 13.8682 63.3929 13.8958C63.0393 13.9511 62.7493 14.0422 62.5228 14.1693C62.3019 14.2908 62.1362 14.4427 62.0257 14.625C61.9207 14.8018 61.8683 15.0006 61.8683 15.2216C61.8683 15.5751 61.9925 15.8458 62.2411 16.0336C62.4897 16.2214 62.8073 16.3153 63.194 16.3153ZM85.6718 7.33333C85.6276 6.78093 85.4205 6.35006 85.0504 6.04072C84.6858 5.73138 84.1306 5.5767 83.3849 5.5767C82.9098 5.5767 82.5204 5.63471 82.2166 5.75071C81.9183 5.86119 81.6973 6.0131 81.5537 6.20644C81.4101 6.39978 81.3355 6.62074 81.33 6.86932C81.3189 7.0737 81.3548 7.25876 81.4377 7.42448C81.5261 7.58467 81.6642 7.73106 81.852 7.86364C82.0398 7.99069 82.2801 8.10669 82.5729 8.21165C82.8656 8.3166 83.2136 8.41051 83.6169 8.49337L85.0089 8.79167C85.948 8.99053 86.7518 9.25292 87.4202 9.57883C88.0886 9.90475 88.6354 10.2887 89.0608 10.7306C89.4861 11.167 89.7982 11.6586 89.9971 12.2055C90.2015 12.7524 90.3064 13.349 90.312 13.9953C90.3064 15.1111 90.0275 16.0557 89.4751 16.8291C88.9227 17.6024 88.1328 18.1907 87.1053 18.594C86.0834 18.9972 84.8543 19.1989 83.418 19.1989C81.9431 19.1989 80.656 18.9807 79.5568 18.5443C78.463 18.1079 77.6123 17.4367 77.0047 16.5308C76.4026 15.6193 76.0987 14.4538 76.0932 13.0341H80.4682C80.4958 13.5533 80.6256 13.9897 80.8577 14.3433C81.0897 14.6968 81.4156 14.9647 81.8354 15.147C82.2607 15.3293 82.7662 15.4205 83.3517 15.4205C83.8434 15.4205 84.2549 15.3597 84.5864 15.2382C84.9178 15.1166 85.1691 14.9482 85.3404 14.7327C85.5116 14.5173 85.6 14.2715 85.6055 13.9953C85.6 13.7356 85.5144 13.5092 85.3487 13.3158C85.1885 13.117 84.9233 12.9402 84.5532 12.7855C84.1831 12.6253 83.6832 12.4762 83.0534 12.3381L81.3631 11.9735C79.8606 11.6476 78.6757 11.1035 77.8084 10.3411C76.9467 9.57331 76.5186 8.52651 76.5241 7.20076C76.5186 6.12358 76.8058 5.18174 77.3858 4.37524C77.9714 3.56321 78.7806 2.93071 79.8136 2.47775C80.8521 2.02478 82.0426 1.79829 83.3849 1.79829C84.7548 1.79829 85.9397 2.02754 86.9396 2.48603C87.9394 2.94452 88.71 3.59083 89.2514 4.42495C89.7982 5.25355 90.0744 6.22301 90.08 7.33333H85.6718ZM99.7207 6.27273V9.58712H91.3353V6.27273H99.7207ZM92.9593 3.22348H97.5332V14.9067C97.5332 15.0835 97.5636 15.2326 97.6243 15.3542C97.6851 15.4702 97.779 15.5586 97.9061 15.6193C98.0331 15.6746 98.1961 15.7022 98.3949 15.7022C98.533 15.7022 98.6932 15.6856 98.8755 15.6525C99.0633 15.6193 99.2014 15.5917 99.2898 15.5696L99.9527 18.7846C99.7483 18.8453 99.4556 18.9199 99.0744 19.0083C98.6988 19.0967 98.2513 19.1547 97.7321 19.1823C96.6825 19.2375 95.8014 19.1298 95.0888 18.8591C94.3762 18.5829 93.8404 18.1493 93.4814 17.5582C93.1223 16.9672 92.9483 16.227 92.9593 15.3376V3.22348ZM109.84 13.4318V6.27273H114.414V19H110.072V16.5805H109.939C109.663 17.3925 109.18 18.0278 108.489 18.4863C107.799 18.9392 106.979 19.1657 106.028 19.1657C105.139 19.1657 104.36 18.9613 103.692 18.5526C103.029 18.1438 102.512 17.5803 102.142 16.8622C101.778 16.1441 101.593 15.321 101.587 14.393V6.27273H106.161V13.4318C106.167 14.0616 106.327 14.5559 106.642 14.915C106.962 15.2741 107.409 15.4536 107.984 15.4536C108.365 15.4536 108.694 15.3735 108.97 15.2133C109.252 15.0476 109.467 14.8156 109.616 14.5173C109.771 14.2135 109.845 13.8516 109.84 13.4318ZM121.347 19.1657C120.441 19.1657 119.607 18.9282 118.845 18.4531C118.088 17.9781 117.48 17.2572 117.022 16.2905C116.569 15.3238 116.342 14.1057 116.342 12.6364C116.342 11.1007 116.58 9.85227 117.055 8.8911C117.536 7.92992 118.154 7.22561 118.911 6.77817C119.673 6.33073 120.474 6.10701 121.314 6.10701C121.944 6.10701 122.496 6.21749 122.971 6.43845C123.446 6.65388 123.844 6.94389 124.164 7.30847C124.485 7.66753 124.728 8.0625 124.894 8.49337H124.96V2.0303H129.534V19H124.993V16.9119H124.894C124.717 17.3428 124.463 17.7295 124.131 18.072C123.805 18.4089 123.408 18.6768 122.938 18.8757C122.474 19.069 121.944 19.1657 121.347 19.1657ZM123.037 15.6525C123.457 15.6525 123.816 15.5309 124.115 15.2879C124.418 15.0393 124.65 14.6913 124.811 14.2438C124.976 13.7909 125.059 13.2551 125.059 12.6364C125.059 12.0066 124.976 11.468 124.811 11.0206C124.65 10.5676 124.418 10.2224 124.115 9.98485C123.816 9.74179 123.457 9.62026 123.037 9.62026C122.618 9.62026 122.259 9.74179 121.96 9.98485C121.668 10.2224 121.441 10.5676 121.281 11.0206C121.126 11.468 121.049 12.0066 121.049 12.6364C121.049 13.2661 121.126 13.8074 121.281 14.2604C121.441 14.7079 121.668 15.0531 121.96 15.2962C122.259 15.5337 122.618 15.6525 123.037 15.6525ZM131.779 19V6.27273H136.353V19H131.779ZM134.066 4.94697C133.447 4.94697 132.917 4.74258 132.475 4.33381C132.033 3.92503 131.812 3.4334 131.812 2.8589C131.812 2.28441 132.033 1.79277 132.475 1.38399C132.917 0.97522 133.447 0.770833 134.066 0.770833C134.69 0.770833 135.221 0.97522 135.657 1.38399C136.099 1.79277 136.32 2.28441 136.32 2.8589C136.32 3.4334 136.099 3.92503 135.657 4.33381C135.221 4.74258 134.69 4.94697 134.066 4.94697ZM144.815 19.232C143.434 19.232 142.252 18.9586 141.269 18.4117C140.285 17.8593 139.531 17.0915 139.007 16.1082C138.482 15.1194 138.219 13.9732 138.219 12.6695C138.219 11.3658 138.482 10.2224 139.007 9.23911C139.531 8.25032 140.285 7.48248 141.269 6.9356C142.252 6.38321 143.434 6.10701 144.815 6.10701C146.196 6.10701 147.378 6.38321 148.362 6.9356C149.345 7.48248 150.099 8.25032 150.624 9.23911C151.148 10.2224 151.411 11.3658 151.411 12.6695C151.411 13.9732 151.148 15.1194 150.624 16.1082C150.099 17.0915 149.345 17.8593 148.362 18.4117C147.378 18.9586 146.196 19.232 144.815 19.232ZM144.848 15.8513C145.235 15.8513 145.569 15.7215 145.851 15.4619C146.133 15.2023 146.351 14.8321 146.505 14.3516C146.66 13.871 146.737 13.2992 146.737 12.6364C146.737 11.968 146.66 11.3962 146.505 10.9212C146.351 10.4406 146.133 10.0705 145.851 9.81084C145.569 9.55121 145.235 9.4214 144.848 9.4214C144.439 9.4214 144.089 9.55121 143.796 9.81084C143.503 10.0705 143.279 10.4406 143.125 10.9212C142.97 11.3962 142.893 11.968 142.893 12.6364C142.893 13.2992 142.97 13.871 143.125 14.3516C143.279 14.8321 143.503 15.2023 143.796 15.4619C144.089 15.7215 144.439 15.8513 144.848 15.8513Z" fill="#111928"/>
</svg>
